<svg xmlns="http://www.w3.org/2000/svg" xmlns:xlink="http://www.w3.org/1999/xlink" width="60" height="20" viewBox="0 0 60 20"><defs><style>.a{fill:url(#a);}.b{fill:url(#b);}.c{fill:url(#c);}.d{fill:url(#d);}.e{fill:url(#e);}.f{fill:url(#f);}.g{fill:#ff0302;}.h{fill:#fe980e;}.i{fill:#fefe1e;}.j{fill:#2cfe1e;}.k{fill:#0d99fd;}.l{fill:#6736fd;}</style><linearGradient id="a" y1="2.5" x2="10" y2="2.5" gradientUnits="userSpaceOnUse"><stop offset="0" stop-color="#ff0302" stop-opacity="0"/><stop offset="1" stop-color="#ff0302"/></linearGradient><linearGradient id="b" y1="5.5" x2="10" y2="5.5" gradientUnits="userSpaceOnUse"><stop offset="0" stop-color="#fe980e" stop-opacity="0"/><stop offset="1" stop-color="#fe980e"/></linearGradient><linearGradient id="c" y1="8.5" x2="10" y2="8.5" gradientUnits="userSpaceOnUse"><stop offset="0" stop-color="#fefe1e" stop-opacity="0"/><stop offset="1" stop-color="#fefe1e"/></linearGradient><linearGradient id="d" y1="11.5" x2="10" y2="11.5" gradientUnits="userSpaceOnUse"><stop offset="0" stop-color="#2cfe1e" stop-opacity="0"/><stop offset="1" stop-color="#2cfe1e"/></linearGradient><linearGradient id="e" y1="14.5" x2="10" y2="14.5" gradientUnits="userSpaceOnUse"><stop offset="0" stop-color="#0d99fd" stop-opacity="0"/><stop offset="1" stop-color="#0d99fd"/></linearGradient><linearGradient id="f" y1="17.5" x2="10" y2="17.5" gradientUnits="userSpaceOnUse"><stop offset="0" stop-color="#6736fd" stop-opacity="0"/><stop offset="1" stop-color="#6736fd"/></linearGradient></defs><title>rainbow</title><rect class="a" y="1" width="10" height="3"/><rect class="b" y="4" width="10" height="3"/><rect class="c" y="7" width="10" height="3"/><rect class="d" y="10" width="10" height="3"/><rect class="e" y="13" width="10" height="3"/><rect class="f" y="16" width="10" height="3"/><rect class="g" x="20" y="1" width="10" height="3"/><rect class="h" x="20" y="4" width="10" height="3"/><rect class="i" x="20" y="7" width="10" height="3"/><rect class="j" x="20" y="10" width="10" height="3"/><rect class="k" x="20" y="13" width="10" height="3"/><rect class="l" x="20" y="16" width="10" height="3"/><polyline class="g" points="40 1 40 4 54 10 60 10 40 1"/><polygon class="h" points="40 4 54 10 48 10 40 7 40 4"/><polygon class="i" points="40 7 48 10 40 10 40 7"/><polyline class="l" points="40 19 40 16 54 10 60 10 40 19"/><polygon class="k" points="40 16 54 10 48 10 40 13 40 16"/><polygon class="j" points="40 13 48 10 40 10 40 13"/></svg>